<svg width="135" height="24" viewBox="0 0 135 24" fill="none" xmlns="http://www.w3.org/2000/svg">
<rect width="72.6923" height="23.6923" fill="url(#paint0_linear_113_541)"/>
<path d="M20.2477 14.3826C20.2477 15.2688 20.077 16.1688 19.7354 17.0826C19.4031 17.9965 18.8954 18.8365 18.2123 19.6026C17.5385 20.3688 16.68 20.9919 15.637 21.4719C14.6031 21.9426 13.3754 22.178 11.9539 22.178C10.0616 22.178 8.44619 21.7303 7.10773 20.8349C5.76927 19.9303 4.74465 18.6842 4.03388 17.0965C3.33235 15.5088 2.98158 13.6857 2.98158 11.6272C2.98158 9.56878 3.33235 7.75032 4.03388 6.17186C4.74465 4.59339 5.76927 3.35647 7.10773 2.46109C8.44619 1.5657 10.0616 1.11801 11.9539 1.11801C13.5323 1.11801 14.8754 1.40416 15.9831 1.97647C17.1 2.54878 17.9908 3.29186 18.6554 4.2057C19.3293 5.11955 19.7862 6.08416 20.0262 7.09955C20.1739 7.71801 20.2477 8.31339 20.2477 8.8857H15.9416C15.9416 8.60878 15.9185 8.34109 15.8723 8.08263C15.78 7.40878 15.5677 6.80878 15.2354 6.28262C14.9031 5.75647 14.46 5.34109 13.9062 5.03647C13.3616 4.72263 12.7108 4.5657 11.9539 4.5657C11.0677 4.5657 10.2785 4.81955 9.58619 5.32724C8.89388 5.83493 8.34927 6.61032 7.95235 7.65339C7.55542 8.69647 7.35696 10.0211 7.35696 11.6272C7.35696 13.2426 7.55542 14.5765 7.95235 15.6288C8.34927 16.6719 8.89388 17.4519 9.58619 17.9688C10.2785 18.4765 11.0677 18.7303 11.9539 18.7303C12.5908 18.7303 13.1539 18.6149 13.6431 18.3842C14.1416 18.1534 14.557 17.8349 14.8893 17.4288C15.2308 17.0226 15.4893 16.5565 15.6647 16.0303C15.8493 15.5042 15.9416 14.9549 15.9416 14.3826H20.2477ZM30.413 22.1642C28.8253 22.1642 27.4268 21.8365 26.2176 21.1811C25.0084 20.5257 24.0622 19.6257 23.3791 18.4811C22.7053 17.3272 22.3684 15.998 22.3684 14.4934C22.3684 12.998 22.7053 11.678 23.3791 10.5334C24.0622 9.37955 25.0084 8.48416 26.2176 7.84724C27.4268 7.20109 28.8253 6.87801 30.413 6.87801C32.0007 6.87801 33.3991 7.20109 34.6084 7.84724C35.8176 8.48416 36.7591 9.37955 37.433 10.5334C38.1161 11.678 38.4576 12.998 38.4576 14.4934C38.4576 15.998 38.1161 17.3272 37.433 18.4811C36.7591 19.6257 35.8176 20.5257 34.6084 21.1811C33.3991 21.8365 32.0007 22.1642 30.413 22.1642ZM30.413 18.758C31.1607 18.758 31.8114 18.5826 32.3653 18.2319C32.9191 17.8811 33.3484 17.3872 33.653 16.7503C33.9576 16.1042 34.1099 15.3519 34.1099 14.4934C34.1099 13.6349 33.9576 12.8919 33.653 12.2642C33.3484 11.6272 32.9191 11.138 32.3653 10.7965C31.8114 10.4549 31.1607 10.2842 30.413 10.2842C29.6745 10.2842 29.0237 10.4549 28.4607 10.7965C27.9068 11.138 27.4776 11.6272 27.173 12.2642C26.8684 12.8919 26.716 13.6349 26.716 14.4934C26.716 15.3519 26.8684 16.1042 27.173 16.7503C27.4776 17.3872 27.9068 17.8811 28.4607 18.2319C29.0237 18.5826 29.6745 18.758 30.413 18.758ZM41.1388 21.8457V7.14109H45.4449V12.2088L44.5588 11.6549C44.6603 10.9626 44.8449 10.3257 45.1126 9.74416C45.3803 9.16263 45.7265 8.65955 46.1511 8.23493C46.5757 7.80109 47.0788 7.46416 47.6603 7.22416C48.2511 6.98416 48.9249 6.86416 49.6818 6.86416C50.2726 6.86416 50.7341 6.91032 51.0665 7.00263C51.408 7.0857 51.6203 7.15032 51.7034 7.19647L50.9972 11.0457C50.9141 10.9995 50.7295 10.9257 50.4434 10.8242C50.1572 10.7226 49.788 10.6719 49.3357 10.6719C48.5972 10.6719 47.9788 10.7965 47.4803 11.0457C46.9818 11.2949 46.5803 11.6272 46.2757 12.0426C45.9803 12.4488 45.768 12.9011 45.6388 13.3995C45.5095 13.898 45.4449 14.4011 45.4449 14.9088V21.8457H41.1388ZM55.2534 15.7811V12.9426H65.0011L64.5857 13.6626C64.5857 13.5888 64.5857 13.5195 64.5857 13.4549C64.5857 13.3811 64.5857 13.3119 64.5857 13.2472C64.5857 12.7211 64.4611 12.218 64.2119 11.738C63.9626 11.2488 63.5749 10.8519 63.0488 10.5472C62.5319 10.2334 61.8673 10.0765 61.0549 10.0765C60.2426 10.0765 59.5411 10.2519 58.9503 10.6026C58.3688 10.9442 57.9211 11.438 57.6073 12.0842C57.3026 12.7303 57.1503 13.5103 57.1503 14.4242C57.1503 15.3657 57.298 16.1734 57.5934 16.8472C57.898 17.5119 58.3457 18.0242 58.9365 18.3842C59.5365 18.7442 60.2796 18.9242 61.1657 18.9242C61.738 18.9242 62.2319 18.8734 62.6473 18.7719C63.0626 18.6611 63.3996 18.5226 63.658 18.3565C63.9257 18.1903 64.1288 18.0057 64.2673 17.8026C64.4057 17.5995 64.4888 17.4011 64.5165 17.2072H68.7534C68.698 17.8257 68.4857 18.4349 68.1165 19.0349C67.7473 19.6257 67.2349 20.1611 66.5796 20.6411C65.9242 21.1119 65.1257 21.4857 64.1842 21.7626C63.2519 22.0395 62.1857 22.178 60.9857 22.178C59.3611 22.178 57.9442 21.8549 56.7349 21.2088C55.5257 20.5534 54.5888 19.6534 53.9242 18.5088C53.2596 17.3549 52.9273 16.0257 52.9273 14.5211C52.9273 12.998 53.2642 11.6642 53.938 10.5195C54.6211 9.3657 55.5673 8.47032 56.7765 7.83339C57.9949 7.18724 59.4026 6.86416 60.9996 6.86416C62.6334 6.86416 64.0457 7.19186 65.2365 7.84724C66.4273 8.49339 67.3457 9.40263 67.9919 10.5749C68.638 11.738 68.9611 13.0949 68.9611 14.6457C68.9611 14.8765 68.9565 15.098 68.9473 15.3103C68.938 15.5226 68.9242 15.6795 68.9057 15.7811H55.2534Z" fill="#1E1E1E"/>
<path d="M82.1817 22.178C80.5109 22.178 79.1724 21.8872 78.1663 21.3057C77.1693 20.7149 76.4447 19.8934 75.9924 18.8411C75.5493 17.7888 75.3278 16.5749 75.3278 15.1995C75.3278 15.0334 75.3278 14.8719 75.3278 14.7149C75.3278 14.558 75.3278 14.4011 75.3278 14.2442H79.5924C79.5924 14.318 79.5924 14.4057 79.5924 14.5072C79.5924 14.6088 79.5924 14.7103 79.5924 14.8119C79.5924 15.4857 79.6617 16.1226 79.8001 16.7226C79.9478 17.3226 80.2109 17.8072 80.5893 18.1765C80.9678 18.5457 81.4986 18.7303 82.1817 18.7303C82.8832 18.7303 83.414 18.5411 83.774 18.1626C84.134 17.7842 84.3786 17.2765 84.5078 16.6395C84.637 16.0026 84.7017 15.2965 84.7017 14.5211V1.42263H88.994V15.1303C88.994 16.0903 88.8832 16.9949 88.6617 17.8442C88.4493 18.6934 88.0847 19.4457 87.5678 20.1011C87.0601 20.7472 86.3678 21.2549 85.4909 21.6242C84.614 21.9934 83.5109 22.178 82.1817 22.178ZM99.7249 22.1642C98.1373 22.1642 96.7388 21.8365 95.5296 21.1811C94.3203 20.5257 93.3742 19.6257 92.6911 18.4811C92.0173 17.3272 91.6803 15.998 91.6803 14.4934C91.6803 12.998 92.0173 11.678 92.6911 10.5334C93.3742 9.37955 94.3203 8.48416 95.5296 7.84724C96.7388 7.20109 98.1373 6.87801 99.7249 6.87801C101.313 6.87801 102.711 7.20109 103.92 7.84724C105.13 8.48416 106.071 9.37955 106.745 10.5334C107.428 11.678 107.77 12.998 107.77 14.4934C107.77 15.998 107.428 17.3272 106.745 18.4811C106.071 19.6257 105.13 20.5257 103.92 21.1811C102.711 21.8365 101.313 22.1642 99.7249 22.1642ZM99.7249 18.758C100.473 18.758 101.123 18.5826 101.677 18.2319C102.231 17.8811 102.66 17.3872 102.965 16.7503C103.27 16.1042 103.422 15.3519 103.422 14.4934C103.422 13.6349 103.27 12.8919 102.965 12.2642C102.66 11.6272 102.231 11.138 101.677 10.7965C101.123 10.4549 100.473 10.2842 99.7249 10.2842C98.9865 10.2842 98.3357 10.4549 97.7726 10.7965C97.2188 11.138 96.7896 11.6272 96.4849 12.2642C96.1803 12.8919 96.028 13.6349 96.028 14.4934C96.028 15.3519 96.1803 16.1042 96.4849 16.7503C96.7896 17.3872 97.2188 17.8811 97.7726 18.2319C98.3357 18.5826 98.9865 18.758 99.7249 18.758ZM110.285 21.8457V7.14109H114.535V21.8457H110.285ZM112.403 4.7457C111.738 4.7457 111.157 4.57032 110.658 4.21955C110.169 3.86878 109.925 3.37493 109.925 2.73801C109.925 2.09186 110.169 1.59339 110.658 1.24263C111.157 0.891856 111.738 0.716471 112.403 0.716471C113.077 0.716471 113.658 0.891856 114.148 1.24263C114.646 1.59339 114.895 2.09186 114.895 2.73801C114.895 3.38416 114.646 3.88262 114.148 4.23339C113.658 4.57493 113.077 4.7457 112.403 4.7457ZM128.055 21.8457V15.6011C128.055 15.2503 128.055 14.9319 128.055 14.6457C128.055 14.3595 128.055 14.1011 128.055 13.8703C128.055 13.2611 127.977 12.7072 127.82 12.2088C127.663 11.7011 127.381 11.2949 126.975 10.9903C126.569 10.6857 125.983 10.5334 125.217 10.5334C124.552 10.5334 123.975 10.6857 123.486 10.9903C123.006 11.2949 122.637 11.7195 122.378 12.2642C122.12 12.8088 121.991 13.4365 121.991 14.1472L120.8 13.2888C120.8 12.0149 121.077 10.898 121.631 9.93801C122.184 8.97801 122.932 8.2257 123.874 7.68109C124.824 7.13647 125.877 6.86416 127.031 6.86416C128.24 6.86416 129.232 7.10878 130.008 7.59801C130.792 8.07801 131.374 8.75186 131.752 9.61955C132.14 10.478 132.334 11.4842 132.334 12.638C132.334 13.1088 132.334 13.6349 132.334 14.2165C132.334 14.798 132.334 15.3934 132.334 16.0026V21.8457H128.055ZM117.698 21.8457V7.14109H121.991V21.8457H117.698Z" fill="url(#paint1_linear_113_541)"/>
<defs>
<linearGradient id="paint0_linear_113_541" x1="36.3462" y1="0" x2="36.3462" y2="23.6923" gradientUnits="userSpaceOnUse">
<stop stop-color="white"/>
<stop offset="1" stop-color="#999999"/>
</linearGradient>
<linearGradient id="paint1_linear_113_541" x1="104.539" y1="1.8457" x2="104.539" y2="21.8457" gradientUnits="userSpaceOnUse">
<stop stop-color="white"/>
<stop offset="1" stop-color="#999999"/>
</linearGradient>
</defs>
</svg>
